<?xml version="1.0" encoding="UTF-8" standalone="yes"?>
<!DOCTYPE svg PUBLIC "-//W3C//DTD SVG 1.1//EN" "http://www.w3.org/Graphics/SVG/1.1/DTD/svg11.dtd">

<svg width="157" height="28" viewBox="0 0 157 28" xmlns="http://www.w3.org/2000/svg" xmlns:xlink="http://www.w3.org/1999/xlink" version="1.1" baseProfile="full">
    <g transform="scale(1,-1) translate(0,-28)">
        <path d="M 5.349812 46.622914 L 5.349812 45.013523 L 15.265740 45.013523 L 15.265740 26.271900 L 4.519159 26.271900 L 4.519159 24.610593 L 16.667468 24.610593 C 14.123591 20.613073 9.918407 17.342374 4.000000 14.850413 L 4.934485 13.344853 C 11.268219 16.252141 15.784898 20.041998 18.380691 24.610593 L 35.357174 24.610593 C 37.952967 20.145830 42.573478 16.511720 49.322538 13.760180 L 50.049360 15.317656 C 44.027122 17.550037 39.718106 20.664988 37.122313 24.610593 L 49.322538 24.610593 L 49.322538 26.271900 L 38.575957 26.271900 L 38.575957 45.013523 L 48.491885 45.013523 L 48.491885 46.622914 L 38.575957 46.622914 L 38.575957 51.191509 L 36.810818 51.191509 L 36.810818 46.622914 L 17.030879 46.622914 L 17.030879 51.191509 L 15.265740 51.191509 L 15.265740 46.622914 Z M 17.030879 26.271900 L 17.030879 31.567317 L 36.810818 31.567317 L 36.810818 26.271900 Z M 17.030879 33.176709 L 17.030879 38.212546 L 36.810818 38.212546 L 36.810818 33.176709 Z M 17.030879 39.770022 L 17.030879 45.013523 L 36.810818 45.013523 L 36.810818 39.770022 Z M 26.064237 21.962885 L 26.064237 16.978963 L 14.746581 16.978963 L 14.746581 15.369571 L 26.064237 15.369571 L 26.064237 7.582194 L 7.218783 7.582194 L 7.218783 5.817055 L 46.311419 5.817055 L 46.311419 7.582194 L 27.829376 7.582194 L 27.829376 15.369571 L 39.043200 15.369571 L 39.043200 16.978963 L 27.829376 16.978963 L 27.829376 21.962885 Z M 76.993687 30.009842 L 76.993687 28.400450 L 86.494288 28.400450 L 86.494288 22.533959 L 77.564762 22.533959 C 78.083920 23.676108 78.551163 24.922088 79.018406 26.168069 L 77.512846 26.531480 C 76.059202 22.482043 74.034484 19.107513 71.438691 16.304057 L 72.580840 15.006161 C 74.138316 16.771299 75.488128 18.692186 76.682192 20.872652 L 86.494288 20.872652 L 86.494288 15.161908 L 76.370697 15.161908 L 76.370697 13.500601 L 86.494288 13.500601 L 86.494288 7.322615 L 71.750186 7.322615 L 71.750186 5.713223 L 102.069044 5.713223 L 102.069044 7.322615 L 88.207511 7.322615 L 88.207511 13.500601 L 98.227271 13.500601 L 98.227271 15.161908 L 88.207511 15.161908 L 88.207511 20.872652 L 99.265588 20.872652 L 99.265588 22.533959 L 88.207511 22.533959 L 88.207511 28.400450 L 97.240869 28.400450 L 97.240869 30.009842 Z M 58.096317 48.543801 L 58.096317 4.051916 L 59.861456 4.051916 L 59.861456 46.882493 L 69.362057 46.882493 C 68.167993 42.210067 66.506685 37.018482 64.326220 31.203906 C 67.129676 26.687227 68.531404 22.585875 68.531404 18.899849 C 68.531404 17.601953 68.167993 16.667468 67.545002 16.148309 C 66.818180 15.629151 65.468368 15.265740 63.495566 15.161908 C 63.235987 15.161908 62.924492 15.213824 62.509165 15.265740 L 63.132155 13.448685 C 65.935611 13.500601 67.856497 14.019759 68.894814 14.954245 C 69.725468 15.784898 70.192711 17.134710 70.244627 18.899849 C 70.088879 22.949286 68.687151 27.102554 66.091359 31.463485 C 68.064161 36.810818 69.777384 42.054319 71.179112 47.142073 L 71.179112 48.543801 Z M 82.289104 51.243425 C 79.900975 46.622914 76.422613 42.677309 71.854018 39.458527 L 72.944251 38.160630 C 75.176633 39.821938 77.201351 41.638992 79.018406 43.611795 C 80.575881 41.119834 82.808263 38.991284 85.715550 37.122313 C 81.821862 35.201427 76.941771 33.643951 71.023364 32.501803 L 71.802102 30.996243 C 77.928173 32.294139 83.119758 34.007362 87.273026 36.187828 C 91.062883 34.007362 95.942973 32.397971 101.913296 31.255822 L 102.536286 32.865213 C 97.188954 33.903531 92.672275 35.305259 88.986249 37.174229 C 92.724190 39.458527 95.527646 42.158151 97.292785 45.376934 L 97.292785 46.726746 L 81.510366 46.726746 C 82.341020 47.972726 83.171674 49.374454 83.950411 50.828098 Z M 87.428774 38.004883 C 84.158075 39.925769 81.718030 42.210067 80.056723 44.857775 C 80.108638 44.961607 80.212470 45.065439 80.316302 45.169270 L 95.268067 45.169270 C 93.554844 42.417730 90.959051 40.029601 87.428774 38.004883 Z M 107.935535 45.325018 L 107.935535 43.559879 L 129.688277 43.559879 C 129.324866 41.327497 128.909539 39.095116 128.494212 36.914650 L 111.154318 36.914650 L 111.154318 4.051916 L 112.919457 4.051916 L 112.919457 35.149511 L 148.689478 35.149511 L 148.689478 8.464763 C 148.689478 6.907288 147.858825 6.076634 146.197518 6.076634 L 140.954017 6.128550 L 141.473175 4.363411 L 146.820508 4.363411 C 149.260553 4.363411 150.506533 5.609391 150.506533 8.101352 L 150.506533 36.914650 L 130.311267 36.914650 C 130.726594 38.991284 131.141921 41.171750 131.505332 43.559879 L 153.621484 43.559879 L 153.621484 45.325018 L 131.712995 45.325018 C 131.920658 47.090157 132.128322 48.959127 132.335985 50.931930 L 130.518930 51.191509 C 130.363183 49.270623 130.155519 47.297820 129.895940 45.325018 Z M 123.977533 32.346055 L 122.368142 31.723065 C 123.666038 29.750262 124.756271 27.569797 125.586924 25.233583 L 118.734032 25.233583 L 118.734032 23.572276 L 129.895940 23.572276 L 129.895940 16.407889 L 116.916977 16.407889 L 116.916977 14.798497 L 129.895940 14.798497 L 129.895940 4.778738 L 131.661079 4.778738 L 131.661079 14.798497 L 144.691958 14.798497 L 144.691958 16.407889 L 131.661079 16.407889 L 131.661079 23.572276 L 142.978735 23.572276 L 142.978735 25.233583 L 135.554768 25.233583 C 136.956496 27.206386 138.202476 29.490683 139.292709 32.138392 L 137.631402 32.709466 C 136.593085 30.061757 135.295189 27.569797 133.841545 25.233583 L 127.352063 25.233583 C 126.313746 28.037039 125.223513 30.373253 123.977533 32.346055 Z M 191.675804 48.543801 L 173.816751 48.543801 L 173.816751 18.224943 L 166.185120 18.224943 L 165.769794 26.946806 L 171.480537 26.946806 L 171.480537 28.608114 L 165.665962 28.608114 L 165.302551 36.603155 L 171.428621 36.603155 L 171.428621 38.212546 L 165.250635 38.212546 L 164.835308 46.622914 C 168.157923 47.557399 170.494136 48.439969 171.895864 49.218707 L 171.169042 50.724266 C 169.300071 49.685949 166.652363 48.751464 163.174001 47.920810 L 164.419981 18.224943 L 159.747555 18.224943 L 159.747555 16.459804 L 205.589252 16.459804 L 205.589252 18.224943 L 201.124488 18.224943 L 202.162806 48.543801 L 193.960101 48.543801 L 193.960101 46.778662 L 200.397667 46.778662 L 200.086171 38.212546 L 193.856269 38.212546 L 193.856269 36.603155 L 200.034256 36.603155 L 199.722761 28.608114 L 193.856269 28.608114 L 193.856269 26.946806 L 199.670845 26.946806 L 199.359350 18.224943 L 191.675804 18.224943 Z M 175.478058 18.224943 L 175.478058 46.934409 L 190.014496 46.934409 L 190.014496 18.224943 Z M 178.593009 42.210067 L 178.593009 40.756423 L 186.899545 40.756423 L 186.899545 42.210067 Z M 178.696841 36.083996 L 178.696841 22.741622 L 186.795713 22.741622 L 186.795713 36.083996 Z M 185.393985 24.247182 L 180.098569 24.247182 L 180.098569 34.630352 L 185.393985 34.630352 Z M 189.287674 14.071675 L 188.353189 12.721863 C 193.752438 10.541397 199.047854 7.634110 204.187524 4.000000 L 205.173925 5.505560 C 200.397667 8.828174 195.102250 11.683546 189.287674 14.071675 Z M 175.789553 13.915928 C 171.740116 10.749061 166.756195 7.997521 160.837788 5.609391 L 161.928021 4.155748 C 167.950259 6.647708 172.986097 9.503080 177.087449 12.773779 Z M 211.871070 44.442448 L 211.871070 42.729225 L 233.727643 42.729225 L 233.727643 34.059278 L 217.477982 34.059278 L 217.477982 11.320135 L 219.191205 11.320135 L 219.191205 32.346055 L 233.727643 32.346055 L 233.727643 4.155748 L 235.492782 4.155748 L 235.492782 32.346055 L 250.652211 32.346055 L 250.652211 16.252141 C 250.652211 14.331254 249.717726 13.344853 247.952587 13.344853 L 242.968665 13.448685 L 243.435908 11.631630 L 248.523661 11.631630 C 251.119454 11.631630 252.417350 13.085274 252.417350 15.888730 L 252.417350 34.059278 L 235.492782 34.059278 L 235.492782 42.729225 L 257.349356 42.729225 L 257.349356 44.442448 L 235.388951 44.442448 C 234.506381 47.193989 233.519980 49.634034 232.481663 51.710668 L 230.664608 51.399173 C 231.754841 49.374454 232.741242 47.038241 233.623812 44.442448 Z M 263.319679 36.603155 L 263.319679 34.838016 L 269.964908 34.838016 L 269.964908 14.487002 C 267.732526 13.760180 265.448229 13.137190 263.060099 12.618031 L 263.527342 10.904808 C 268.718927 12.202705 273.599017 13.812096 278.063781 15.784898 L 278.063781 17.601953 C 275.987146 16.667468 273.858597 15.836814 271.678131 15.058076 L 271.678131 34.838016 L 278.011865 34.838016 L 278.011865 36.603155 L 271.678131 36.603155 L 271.678131 51.139593 L 269.964908 51.139593 L 269.964908 36.603155 Z M 282.736207 48.959127 L 282.736207 34.578437 L 305.631098 34.578437 L 305.631098 48.959127 Z M 303.917875 36.135912 L 284.397514 36.135912 L 284.397514 41.016002 L 303.917875 41.016002 Z M 284.397514 42.469646 L 284.397514 47.401652 L 303.917875 47.401652 L 303.917875 42.469646 Z M 278.894434 30.269421 L 278.894434 28.608114 L 287.720129 28.608114 C 285.954990 25.181667 282.840039 22.222464 278.375276 19.730503 L 279.361677 18.380691 C 281.386395 19.522840 283.203450 20.820736 284.812841 22.274380 L 291.925313 22.274380 C 289.433352 18.069196 285.020505 14.694665 278.582939 12.150789 L 279.621256 10.852892 C 286.266485 13.604433 290.938912 17.394290 293.690452 22.274380 L 299.868438 22.274380 C 296.493908 14.175507 290.679332 8.776258 282.424712 6.024718 L 283.359197 4.571074 C 291.925313 7.478362 297.999468 13.396769 301.633577 22.274380 L 306.046425 22.274380 C 305.786845 15.421487 305.267687 10.904808 304.437033 8.828174 C 303.606380 6.803456 301.893156 5.765139 299.297364 5.765139 C 298.466710 5.765139 297.532225 5.817055 296.545824 5.817055 L 297.013066 4.155748 L 300.179933 4.155748 C 302.308483 4.259579 303.865959 4.882569 304.852360 6.024718 C 305.786845 7.166867 306.513667 9.243501 306.980910 12.202705 C 307.344321 15.161908 307.603900 19.055597 307.759648 23.883771 L 286.370317 23.883771 C 287.616297 25.337415 288.654614 26.946806 289.485268 28.608114 L 309.888198 28.608114 L 309.888198 30.269421 Z" transform="scale(0.500000,0.500000) translate(0.000000,0.000000)" fill="#232626" opacity="1.000000"></path>
    </g>
</svg>